# Blender v3.0.1 OBJ File: 'melting platforms v2.blend'
# www.blender.org
o Curve
v 0.391648 1.744903 -0.945338
v 0.351304 1.745009 -0.873125
v 0.297362 1.745009 -0.814042
v 0.232540 1.745009 -0.768088
v 0.159559 1.745009 -0.735264
v 0.081138 1.745009 -0.715570
v -0.000003 1.745009 -0.709005
v -0.081145 1.744903 -0.715570
v -0.159566 1.745009 -0.735264
v -0.232549 1.745009 -0.768088
v -0.297372 1.745009 -0.814042
v -0.351316 1.744903 -0.873125
v -0.391661 1.744903 -0.945338
v -0.369114 1.745009 -0.865755
v -0.365469 1.745009 -0.785841
v -0.378803 1.744903 -0.707520
v -0.407193 1.745009 -0.632715
v -0.448716 1.744903 -0.563348
v -0.501448 1.745009 -0.501343
v -0.563466 1.745009 -0.448621
v -0.632847 1.745009 -0.407106
v -0.707668 1.745009 -0.378721
v -0.786005 1.745009 -0.365388
v -0.865936 1.745009 -0.369031
v -0.945537 1.745009 -0.391572
v -0.873308 1.745009 -0.351237
v -0.814213 1.745009 -0.297305
v -0.768249 1.745009 -0.232497
v -0.735418 1.745009 -0.159531
v -0.715719 1.745009 -0.081127
v -0.709153 1.745009 -0.000003
v -0.715719 1.745009 0.081121
v -0.735418 1.745009 0.159526
v -0.768249 1.745009 0.232493
v -0.814213 1.745009 0.297303
v -0.873308 1.745009 0.351235
v -0.945537 1.744903 0.391572
v -0.865936 1.745009 0.369032
v -0.786005 1.745009 0.365389
v -0.707668 1.745009 0.378722
v -0.632847 1.745009 0.407107
v -0.563465 1.744903 0.448621
v -0.501447 1.745009 0.501343
v -0.448714 1.745009 0.563349
v -0.407191 1.745009 0.632715
v -0.378800 1.745009 0.707521
v -0.365464 1.745009 0.785842
v -0.369108 1.745009 0.865755
v -0.391653 1.745009 0.945339
v -0.351309 1.745009 0.873126
v -0.297367 1.744903 0.814043
v -0.232545 1.745009 0.768089
v -0.159563 1.745009 0.735265
v -0.081142 1.745009 0.715570
v -0.000001 1.745009 0.709006
v 0.081140 1.745009 0.715570
v 0.159561 1.744903 0.735265
v 0.232544 1.745009 0.768089
v 0.297367 1.745009 0.814043
v 0.351311 1.745009 0.873126
v 0.391657 1.745009 0.945339
v 0.369111 1.745009 0.865755
v 0.365468 1.744903 0.785842
v 0.378803 1.745009 0.707521
v 0.407194 1.745009 0.632715
v 0.448718 1.745009 0.563349
v 0.501450 1.745009 0.501343
v 0.563469 1.745009 0.448622
v 0.632851 1.745009 0.407107
v 0.707672 1.745009 0.378722
v 0.786009 1.745009 0.365389
v 0.865940 1.745009 0.369032
v 0.945540 1.745009 0.391572
v 0.873312 1.745009 0.351237
v 0.814216 1.745009 0.297306
v 0.768253 1.744903 0.232498
v 0.735422 1.745009 0.159532
v 0.715723 1.745009 0.081127
v 0.709157 1.745009 0.000004
v 0.715723 1.745009 -0.081120
v 0.735422 1.745009 -0.159526
v 0.768253 1.745009 -0.232492
v 0.814216 1.744903 -0.297302
v 0.873312 1.745009 -0.351235
v 0.945540 1.744903 -0.391572
v 0.865938 1.745009 -0.369031
v 0.786005 1.745009 -0.365388
v 0.707667 1.744903 -0.378721
v 0.632845 1.744903 -0.407106
v 0.563462 1.744903 -0.448621
v 0.501443 1.745009 -0.501342
v 0.448710 1.745009 -0.563348
v 0.407186 1.745009 -0.632715
v 0.378795 1.745009 -0.707520
v 0.365459 1.745009 -0.785841
v 0.369103 1.745009 -0.865754
v 0.391648 -1.744991 -0.945338
v 0.351304 -1.744991 -0.873125
v 0.297362 -1.744991 -0.814042
v 0.232540 -1.744991 -0.768088
v 0.159559 -1.744991 -0.735264
v 0.081138 -1.744991 -0.715570
v -0.000003 -1.744991 -0.709005
v -0.081145 -1.744991 -0.715570
v -0.159566 -1.744991 -0.735264
v -0.232549 -1.744991 -0.768088
v -0.297372 -1.744991 -0.814042
v -0.351316 -1.744991 -0.873125
v -0.391661 -1.744991 -0.945338
v -0.369114 -1.744991 -0.865755
v -0.365469 -1.744991 -0.785841
v -0.378803 -1.744991 -0.707520
v -0.407193 -1.744991 -0.632715
v -0.448716 -1.744991 -0.563348
v -0.501448 -1.744991 -0.501343
v -0.563466 -1.744991 -0.448621
v -0.632847 -1.744991 -0.407106
v -0.707668 -1.744991 -0.378721
v -0.786005 -1.744991 -0.365388
v -0.865936 -1.744991 -0.369031
v -0.945537 -1.744991 -0.391572
v -0.873308 -1.744991 -0.351237
v -0.814213 -1.744991 -0.297305
v -0.768249 -1.744991 -0.232497
v -0.735418 -1.744991 -0.159531
v -0.715719 -1.744991 -0.081127
v -0.709153 -1.744991 -0.000003
v -0.715719 -1.744991 0.081121
v -0.735418 -1.744991 0.159526
v -0.768249 -1.744991 0.232493
v -0.814213 -1.744991 0.297303
v -0.873308 -1.744991 0.351235
v -0.945537 -1.744991 0.391572
v -0.865936 -1.744991 0.369032
v -0.786005 -1.744991 0.365389
v -0.707668 -1.744991 0.378722
v -0.632847 -1.744991 0.407107
v -0.563465 -1.744991 0.448621
v -0.501447 -1.744991 0.501343
v -0.448714 -1.744991 0.563349
v -0.407191 -1.744991 0.632715
v -0.378800 -1.744991 0.707521
v -0.365464 -1.744991 0.785842
v -0.369108 -1.744991 0.865755
v -0.391653 -1.744991 0.945339
v -0.351309 -1.744991 0.873126
v -0.297367 -1.744991 0.814043
v -0.232545 -1.744991 0.768089
v -0.159563 -1.744991 0.735265
v -0.081142 -1.744991 0.715570
v -0.000001 -1.744991 0.709006
v 0.081140 -1.744991 0.715570
v 0.159561 -1.744991 0.735265
v 0.232544 -1.744991 0.768089
v 0.297367 -1.744991 0.814043
v 0.351311 -1.744991 0.873126
v 0.391657 -1.744991 0.945339
v 0.369111 -1.744991 0.865755
v 0.365468 -1.744991 0.785842
v 0.378803 -1.744991 0.707521
v 0.407194 -1.744991 0.632715
v 0.448718 -1.744991 0.563349
v 0.501450 -1.744991 0.501343
v 0.563469 -1.744991 0.448622
v 0.632851 -1.744991 0.407107
v 0.707672 -1.744991 0.378722
v 0.786009 -1.744991 0.365389
v 0.865940 -1.744991 0.369032
v 0.945540 -1.744991 0.391572
v 0.873312 -1.744991 0.351237
v 0.814216 -1.744991 0.297306
v 0.768253 -1.744991 0.232498
v 0.735422 -1.744991 0.159532
v 0.715723 -1.744991 0.081127
v 0.709157 -1.744991 0.000004
v 0.715723 -1.744991 -0.081120
v 0.735422 -1.744991 -0.159526
v 0.768253 -1.744991 -0.232492
v 0.814216 -1.744991 -0.297302
v 0.873312 -1.744991 -0.351235
v 0.945540 -1.744991 -0.391572
v 0.865938 -1.744991 -0.369031
v 0.786005 -1.744991 -0.365388
v 0.707667 -1.744991 -0.378721
v 0.632845 -1.744991 -0.407106
v 0.563462 -1.744991 -0.448621
v 0.501443 -1.744991 -0.501342
v 0.448710 -1.744991 -0.563348
v 0.407186 -1.744991 -0.632715
v 0.378795 -1.744991 -0.707520
v 0.365459 -1.744991 -0.785841
v 0.369103 -1.744991 -0.865754
vt 0.136842 0.000000
vt 0.115789 0.000000
vt 0.126316 0.000000
vt 0.010526 0.000000
vt 1.000000 0.000000
vt 0.000000 0.000000
vt 0.105263 0.000000
vt 0.021053 0.000000
vt 0.147368 0.000000
vt 0.989474 0.000000
vt 0.094737 0.000000
vt 0.031579 0.000000
vt 0.157895 0.000000
vt 0.978947 0.000000
vt 0.084211 0.000000
vt 0.042105 0.000000
vt 0.073684 0.000000
vt 0.052632 0.000000
vt 0.063158 0.000000
vt 0.168421 0.000000
vt 0.968421 0.000000
vt 0.178947 0.000000
vt 0.957895 0.000000
vt 0.189474 0.000000
vt 0.947368 0.000000
vt 0.200000 0.000000
vt 0.936842 0.000000
vt 0.210526 0.000000
vt 0.926316 0.000000
vt 0.221053 0.000000
vt 0.915789 0.000000
vt 0.263158 0.000000
vt 0.242105 0.000000
vt 0.252632 0.000000
vt 0.894737 0.000000
vt 0.873684 0.000000
vt 0.884211 0.000000
vt 0.231579 0.000000
vt 0.905263 0.000000
vt 0.273684 0.000000
vt 0.863158 0.000000
vt 0.284211 0.000000
vt 0.852632 0.000000
vt 0.294737 0.000000
vt 0.842105 0.000000
vt 0.305263 0.000000
vt 0.831579 0.000000
vt 0.315789 0.000000
vt 0.821053 0.000000
vt 0.326316 0.000000
vt 0.810526 0.000000
vt 0.336842 0.000000
vt 0.800000 0.000000
vt 0.347368 0.000000
vt 0.789474 0.000000
vt 0.357895 0.000000
vt 0.778947 0.000000
vt 0.368421 0.000000
vt 0.768421 0.000000
vt 0.378947 0.000000
vt 0.389474 0.000000
vt 0.400000 0.000000
vt 0.736842 0.000000
vt 0.747368 0.000000
vt 0.757895 0.000000
vt 0.410526 0.000000
vt 0.726316 0.000000
vt 0.421053 0.000000
vt 0.715789 0.000000
vt 0.431579 0.000000
vt 0.705263 0.000000
vt 0.442105 0.000000
vt 0.694737 0.000000
vt 0.452632 0.000000
vt 0.684211 0.000000
vt 0.463158 0.000000
vt 0.673684 0.000000
vt 0.473684 0.000000
vt 0.663158 0.000000
vt 0.484211 0.000000
vt 0.557895 0.000000
vt 0.568421 0.000000
vt 0.578947 0.000000
vt 0.652632 0.000000
vt 0.547368 0.000000
vt 0.589474 0.000000
vt 0.600000 0.000000
vt 0.536842 0.000000
vt 0.610526 0.000000
vt 0.526316 0.000000
vt 0.494737 0.000000
vt 0.642105 0.000000
vt 0.621053 0.000000
vt 0.515789 0.000000
vt 0.631579 0.000000
vt 0.505263 0.000000
vt 0.136842 0.000000
vt 0.126316 0.000000
vt 0.115789 0.000000
vt 0.010526 0.000000
vt 0.000000 0.000000
vt 1.000000 0.000000
vt 0.105263 0.000000
vt 0.021053 0.000000
vt 0.147368 0.000000
vt 0.989474 0.000000
vt 0.094737 0.000000
vt 0.031579 0.000000
vt 0.157895 0.000000
vt 0.978947 0.000000
vt 0.084211 0.000000
vt 0.042105 0.000000
vt 0.073684 0.000000
vt 0.052632 0.000000
vt 0.063158 0.000000
vt 0.168421 0.000000
vt 0.968421 0.000000
vt 0.178947 0.000000
vt 0.957895 0.000000
vt 0.189474 0.000000
vt 0.947368 0.000000
vt 0.200000 0.000000
vt 0.936842 0.000000
vt 0.210526 0.000000
vt 0.926316 0.000000
vt 0.221053 0.000000
vt 0.915789 0.000000
vt 0.263158 0.000000
vt 0.252632 0.000000
vt 0.242105 0.000000
vt 0.894737 0.000000
vt 0.884211 0.000000
vt 0.873684 0.000000
vt 0.231579 0.000000
vt 0.905263 0.000000
vt 0.273684 0.000000
vt 0.863158 0.000000
vt 0.284211 0.000000
vt 0.852632 0.000000
vt 0.294737 0.000000
vt 0.842105 0.000000
vt 0.305263 0.000000
vt 0.831579 0.000000
vt 0.315789 0.000000
vt 0.821053 0.000000
vt 0.326316 0.000000
vt 0.810526 0.000000
vt 0.336842 0.000000
vt 0.800000 0.000000
vt 0.347368 0.000000
vt 0.789474 0.000000
vt 0.357895 0.000000
vt 0.778947 0.000000
vt 0.368421 0.000000
vt 0.768421 0.000000
vt 0.378947 0.000000
vt 0.389474 0.000000
vt 0.400000 0.000000
vt 0.736842 0.000000
vt 0.747368 0.000000
vt 0.757895 0.000000
vt 0.410526 0.000000
vt 0.726316 0.000000
vt 0.421053 0.000000
vt 0.715789 0.000000
vt 0.431579 0.000000
vt 0.705263 0.000000
vt 0.442105 0.000000
vt 0.694737 0.000000
vt 0.452632 0.000000
vt 0.684211 0.000000
vt 0.463158 0.000000
vt 0.673684 0.000000
vt 0.473684 0.000000
vt 0.663158 0.000000
vt 0.484211 0.000000
vt 0.557895 0.000000
vt 0.568421 0.000000
vt 0.578947 0.000000
vt 0.652632 0.000000
vt 0.547368 0.000000
vt 0.589474 0.000000
vt 0.600000 0.000000
vt 0.536842 0.000000
vt 0.610526 0.000000
vt 0.526316 0.000000
vt 0.494737 0.000000
vt 0.642105 0.000000
vt 0.621053 0.000000
vt 0.515789 0.000000
vt 0.631579 0.000000
vt 0.505263 0.000000
vn 0.0049 1.0000 -0.0027
vn 0.0005 1.0000 -0.0012
vn 0.0038 1.0000 -0.0053
vn 0.0000 1.0000 -0.0000
vn -0.0002 1.0000 0.0013
vn -0.0004 1.0000 0.0008
vn 0.0001 1.0000 0.0049
vn -0.0003 0.9999 -0.0122
vn -0.0001 0.9994 0.0357
vn -0.0001 1.0000 -0.0015
vn -0.0000 1.0000 0.0015
vn -0.0001 1.0000 0.0001
vn -0.0001 1.0000 -0.0018
vn 0.0001 1.0000 0.0019
vn 0.0001 1.0000 0.0002
vn 0.0001 1.0000 -0.0001
vn 0.0001 1.0000 -0.0002
vn 0.0012 1.0000 -0.0005
vn 0.0001 1.0000 0.0005
vn 0.0000 1.0000 -0.0080
vn 0.0001 1.0000 0.0020
vn 0.0001 1.0000 -0.0000
vn 0.0000 1.0000 -0.0016
vn 0.0001 1.0000 0.0014
vn 0.0001 1.0000 0.0001
vn -0.0012 1.0000 0.0005
vn -0.0000 1.0000 0.0026
vn -0.0001 1.0000 -0.0002
vn -0.0001 1.0000 -0.0019
vn 0.0000 1.0000 -0.0002
vn 0.0000 1.0000 0.0014
vn 0.0000 1.0000 0.0003
vn -0.0586 0.9692 0.2391
vn 0.0018 1.0000 -0.0072
vn 0.0010 1.0000 -0.0014
vn 0.0004 1.0000 0.0028
vn 0.0015 1.0000 0.0001
vn 0.0005 1.0000 -0.0013
vn 0.0000 -1.0000 0.0000
vn 0.0000 -1.0000 0.0007
vn -0.9621 0.0000 0.2726
vn 0.8730 0.0000 -0.4877
vn -0.8730 0.0000 -0.4877
vn 0.9621 0.0000 0.2726
vn 0.7385 0.0000 -0.6743
vn -0.7385 0.0000 -0.6742
vn -0.9990 0.0000 0.0456
vn 0.9990 0.0000 0.0455
vn 0.5783 0.0000 -0.8158
vn -0.5783 0.0000 -0.8158
vn -0.9858 0.0000 -0.1678
vn 0.9858 0.0000 -0.1679
vn 0.4102 0.0000 -0.9120
vn -0.4102 0.0000 -0.9120
vn 0.2436 0.0000 -0.9699
vn -0.2436 0.0000 -0.9699
vn 0.0806 0.0000 -0.9967
vn -0.0806 0.0000 -0.9967
vn -0.9349 0.0000 -0.3548
vn 0.9349 0.0000 -0.3548
vn -0.8580 0.0000 -0.5136
vn 0.8580 0.0000 -0.5136
vn -0.7618 0.0000 -0.6478
vn 0.7618 0.0000 -0.6479
vn -0.6477 0.0000 -0.7619
vn 0.6477 0.0000 -0.7619
vn -0.5135 0.0000 -0.8581
vn 0.5135 0.0000 -0.8581
vn -0.3547 0.0000 -0.9350
vn 0.3547 0.0000 -0.9350
vn -0.4876 0.0000 0.8731
vn 0.2725 0.0000 -0.9622
vn -0.2725 0.0000 -0.9622
vn 0.4876 0.0000 0.8731
vn -0.1678 0.0000 -0.9858
vn 0.1678 0.0000 -0.9858
vn 0.0455 0.0000 -0.9990
vn -0.0455 0.0000 -0.9990
vn -0.6741 0.0000 0.7386
vn 0.6741 0.0000 0.7386
vn -0.8157 0.0000 0.5785
vn 0.8157 0.0000 0.5785
vn -0.9119 0.0000 0.4103
vn 0.9119 0.0000 0.4103
vn -0.9699 0.0000 0.2437
vn 0.9699 0.0000 0.2437
vn -0.9967 0.0000 0.0807
vn 0.9967 0.0000 0.0807
vn -0.9967 0.0000 -0.0807
vn 0.9967 0.0000 -0.0807
vn -0.9699 0.0000 -0.2437
vn 0.9699 0.0000 -0.2437
vn -0.9119 0.0000 -0.4103
vn 0.9119 0.0000 -0.4103
vn -0.8157 0.0000 -0.5785
vn 0.8157 0.0000 -0.5785
vn -0.6741 0.0000 -0.7386
vn 0.6741 0.0000 -0.7386
vn -0.4876 0.0000 -0.8731
vn 0.2725 0.0000 0.9622
vn 0.0455 0.0000 0.9990
vn -0.0455 0.0000 0.9990
vn -0.2725 0.0000 0.9622
vn 0.4876 0.0000 -0.8731
vn -0.1678 0.0000 0.9858
vn 0.1678 0.0000 0.9858
vn -0.3547 0.0000 0.9350
vn 0.3547 0.0000 0.9350
vn -0.5135 0.0000 0.8581
vn 0.5135 0.0000 0.8581
vn -0.6477 0.0000 0.7619
vn 0.6477 0.0000 0.7619
vn -0.7618 0.0000 0.6478
vn 0.7618 0.0000 0.6478
vn -0.8580 0.0000 0.5136
vn 0.8580 0.0000 0.5136
vn -0.9349 0.0000 0.3548
vn 0.9349 0.0000 0.3548
vn -0.9858 0.0000 0.1679
vn 0.0806 0.0000 0.9967
vn -0.0806 0.0000 0.9967
vn 0.9858 0.0000 0.1679
vn 0.2436 0.0000 0.9699
vn -0.2436 0.0000 0.9699
vn -0.4102 0.0000 0.9120
vn 0.4102 0.0000 0.9120
vn -0.5783 0.0000 0.8158
vn 0.5783 0.0000 0.8158
vn -0.9990 0.0000 -0.0455
vn 0.9990 0.0000 -0.0455
vn -0.7385 0.0000 0.6743
vn 0.7385 0.0000 0.6742
vn -0.8730 0.0000 0.4877
vn 0.9621 0.0000 -0.2726
vn -0.9621 0.0000 -0.2726
vn 0.8730 0.0000 0.4877
s off
f 14/1/1 12/2/1 13/3/1
f 2/4/2 96/5/2 1/6/2
f 14/1/3 11/7/3 12/2/3
f 3/8/4 96/5/4 2/4/4
f 15/9/4 11/7/4 14/1/4
f 3/8/4 95/10/4 96/5/4
f 15/9/4 10/11/4 11/7/4
f 4/12/4 95/10/4 3/8/4
f 16/13/5 10/11/5 15/9/5
f 4/12/4 94/14/4 95/10/4
f 16/13/6 9/15/6 10/11/6
f 5/16/4 94/14/4 4/12/4
f 16/13/7 8/17/7 9/15/7
f 6/18/4 94/14/4 5/16/4
f 16/13/8 7/19/8 8/17/8
f 7/19/4 94/14/4 6/18/4
f 16/13/9 94/14/9 7/19/9
f 17/20/10 94/14/10 16/13/10
f 17/20/4 93/21/4 94/14/4
f 18/22/11 93/21/11 17/20/11
f 18/22/12 92/23/12 93/21/12
f 19/24/13 92/23/13 18/22/13
f 19/24/4 91/25/4 92/23/4
f 20/26/4 91/25/4 19/24/4
f 20/26/14 90/27/14 91/25/14
f 21/28/15 90/27/15 20/26/15
f 21/28/16 89/29/16 90/27/16
f 22/30/15 89/29/15 21/28/15
f 22/30/17 88/31/17 89/29/17
f 26/32/4 24/33/4 25/34/4
f 86/35/18 84/36/18 85/37/18
f 23/38/19 88/31/19 22/30/19
f 23/38/20 87/39/20 88/31/20
f 26/32/4 23/38/4 24/33/4
f 87/39/4 84/36/4 86/35/4
f 26/32/4 87/39/4 23/38/4
f 26/32/4 84/36/4 87/39/4
f 27/40/4 84/36/4 26/32/4
f 27/40/21 83/41/21 84/36/21
f 28/42/22 83/41/22 27/40/22
f 28/42/23 82/43/23 83/41/23
f 29/44/4 82/43/4 28/42/4
f 29/44/4 81/45/4 82/43/4
f 30/46/4 81/45/4 29/44/4
f 30/46/4 80/47/4 81/45/4
f 31/48/4 80/47/4 30/46/4
f 31/48/4 79/49/4 80/47/4
f 32/50/4 79/49/4 31/48/4
f 32/50/4 78/51/4 79/49/4
f 33/52/4 78/51/4 32/50/4
f 33/52/4 77/53/4 78/51/4
f 34/54/4 77/53/4 33/52/4
f 34/54/24 76/55/24 77/53/24
f 35/56/25 76/55/25 34/54/25
f 35/56/23 75/57/23 76/55/23
f 36/58/4 75/57/4 35/56/4
f 36/58/4 74/59/4 75/57/4
f 37/60/26 38/61/26 36/58/26
f 38/61/4 39/62/4 36/58/4
f 39/62/4 74/59/4 36/58/4
f 39/62/4 71/63/4 74/59/4
f 71/63/4 72/64/4 74/59/4
f 72/64/4 73/65/4 74/59/4
f 40/66/4 71/63/4 39/62/4
f 40/66/4 70/67/4 71/63/4
f 41/68/4 70/67/4 40/66/4
f 41/68/4 69/69/4 70/67/4
f 42/70/27 69/69/27 41/68/27
f 42/70/28 68/71/28 69/69/28
f 43/72/29 68/71/29 42/70/29
f 43/72/4 67/73/4 68/71/4
f 44/74/4 67/73/4 43/72/4
f 44/74/4 66/75/4 67/73/4
f 45/76/4 66/75/4 44/74/4
f 45/76/4 65/77/4 66/75/4
f 46/78/4 65/77/4 45/76/4
f 46/78/4 64/79/4 65/77/4
f 47/80/4 54/81/4 46/78/4
f 54/81/4 55/82/4 46/78/4
f 55/82/30 64/79/30 46/78/30
f 55/82/4 56/83/4 64/79/4
f 56/83/31 63/84/31 64/79/31
f 47/80/32 53/85/32 54/81/32
f 57/86/33 63/84/33 56/83/33
f 58/87/34 63/84/34 57/86/34
f 47/80/4 52/88/4 53/85/4
f 59/89/35 63/84/35 58/87/35
f 47/80/36 51/90/36 52/88/36
f 48/91/37 51/90/37 47/80/37
f 59/89/35 62/92/35 63/84/35
f 60/93/4 62/92/4 59/89/4
f 48/91/38 50/94/38 51/90/38
f 60/93/4 61/95/4 62/92/4
f 49/96/4 50/94/4 48/91/4
f 110/97/39 109/98/39 108/99/39
f 98/100/39 97/101/39 192/102/39
f 110/97/39 108/99/39 107/103/39
f 99/104/39 98/100/39 192/102/39
f 111/105/39 110/97/39 107/103/39
f 99/104/39 192/102/39 191/106/39
f 111/105/39 107/103/39 106/107/39
f 100/108/39 99/104/39 191/106/39
f 112/109/39 111/105/39 106/107/39
f 100/108/39 191/106/39 190/110/39
f 112/109/39 106/107/39 105/111/39
f 101/112/39 100/108/39 190/110/39
f 112/109/39 105/111/39 104/113/39
f 102/114/39 101/112/39 190/110/39
f 112/109/39 104/113/39 103/115/39
f 103/115/39 102/114/39 190/110/39
f 112/109/39 103/115/39 190/110/39
f 113/116/39 112/109/39 190/110/39
f 113/116/39 190/110/39 189/117/39
f 114/118/39 113/116/39 189/117/39
f 114/118/39 189/117/39 188/119/39
f 115/120/39 114/118/39 188/119/39
f 115/120/39 188/119/39 187/121/39
f 116/122/39 115/120/39 187/121/39
f 116/122/39 187/121/39 186/123/39
f 117/124/39 116/122/39 186/123/39
f 117/124/39 186/123/39 185/125/39
f 118/126/39 117/124/39 185/125/39
f 118/126/39 185/125/39 184/127/39
f 122/128/39 121/129/39 120/130/39
f 182/131/39 181/132/39 180/133/39
f 119/134/39 118/126/39 184/127/39
f 119/134/39 184/127/39 183/135/39
f 122/128/39 120/130/39 119/134/39
f 183/135/39 182/131/39 180/133/39
f 122/128/39 119/134/39 183/135/39
f 122/128/39 183/135/39 180/133/39
f 123/136/39 122/128/39 180/133/39
f 123/136/39 180/133/39 179/137/39
f 124/138/39 123/136/39 179/137/39
f 124/138/39 179/137/39 178/139/39
f 125/140/39 124/138/39 178/139/39
f 125/140/39 178/139/39 177/141/39
f 126/142/39 125/140/39 177/141/39
f 126/142/39 177/141/39 176/143/39
f 127/144/39 126/142/39 176/143/39
f 127/144/39 176/143/39 175/145/39
f 128/146/39 127/144/39 175/145/39
f 128/146/39 175/145/39 174/147/39
f 129/148/39 128/146/39 174/147/39
f 129/148/39 174/147/39 173/149/39
f 130/150/39 129/148/39 173/149/39
f 130/150/39 173/149/39 172/151/39
f 131/152/39 130/150/39 172/151/39
f 131/152/39 172/151/39 171/153/39
f 132/154/39 131/152/39 171/153/39
f 132/154/39 171/153/39 170/155/39
f 133/156/39 132/154/39 134/157/39
f 134/157/39 132/154/39 135/158/39
f 135/158/39 132/154/39 170/155/39
f 135/158/39 170/155/39 167/159/39
f 167/159/39 170/155/39 168/160/39
f 168/160/39 170/155/39 169/161/39
f 136/162/39 135/158/39 167/159/39
f 136/162/39 167/159/39 166/163/39
f 137/164/39 136/162/39 166/163/39
f 137/164/39 166/163/39 165/165/39
f 138/166/39 137/164/39 165/165/39
f 138/166/39 165/165/39 164/167/39
f 139/168/39 138/166/39 164/167/39
f 139/168/39 164/167/39 163/169/39
f 140/170/39 139/168/39 163/169/39
f 140/170/39 163/169/39 162/171/39
f 141/172/39 140/170/39 162/171/39
f 141/172/39 162/171/39 161/173/39
f 142/174/39 141/172/39 161/173/39
f 142/174/39 161/173/39 160/175/39
f 143/176/39 142/174/39 150/177/39
f 150/177/39 142/174/39 151/178/39
f 151/178/39 142/174/39 160/175/39
f 151/178/39 160/175/39 152/179/39
f 152/179/39 160/175/39 159/180/39
f 143/176/39 150/177/39 149/181/39
f 153/182/40 152/179/40 159/180/40
f 154/183/39 153/182/39 159/180/39
f 143/176/39 149/181/39 148/184/39
f 155/185/39 154/183/39 159/180/39
f 143/176/39 148/184/39 147/186/39
f 144/187/39 143/176/39 147/186/39
f 155/185/39 159/180/39 158/188/39
f 156/189/39 155/185/39 158/188/39
f 144/187/39 147/186/39 146/190/39
f 156/189/39 158/188/39 157/191/39
f 145/192/39 144/187/39 146/190/39
f 14/1/41 13/3/41 109/98/41 110/97/41
f 13/3/42 12/2/42 108/99/42 109/98/42
f 2/4/43 1/6/43 97/101/43 98/100/43
f 1/6/44 96/5/44 192/102/44 97/101/44
f 12/2/45 11/7/45 107/103/45 108/99/45
f 3/8/46 2/4/46 98/100/46 99/104/46
f 15/9/47 14/1/47 110/97/47 111/105/47
f 96/5/48 95/10/48 191/106/48 192/102/48
f 11/7/49 10/11/49 106/107/49 107/103/49
f 4/12/50 3/8/50 99/104/50 100/108/50
f 16/13/51 15/9/51 111/105/51 112/109/51
f 95/10/52 94/14/52 190/110/52 191/106/52
f 10/11/53 9/15/53 105/111/53 106/107/53
f 5/16/54 4/12/54 100/108/54 101/112/54
f 9/15/55 8/17/55 104/113/55 105/111/55
f 6/18/56 5/16/56 101/112/56 102/114/56
f 8/17/57 7/19/57 103/115/57 104/113/57
f 7/19/58 6/18/58 102/114/58 103/115/58
f 17/20/59 16/13/59 112/109/59 113/116/59
f 94/14/60 93/21/60 189/117/60 190/110/60
f 18/22/61 17/20/61 113/116/61 114/118/61
f 93/21/62 92/23/62 188/119/62 189/117/62
f 19/24/63 18/22/63 114/118/63 115/120/63
f 92/23/64 91/25/64 187/121/64 188/119/64
f 20/26/65 19/24/65 115/120/65 116/122/65
f 91/25/66 90/27/66 186/123/66 187/121/66
f 21/28/67 20/26/67 116/122/67 117/124/67
f 90/27/68 89/29/68 185/125/68 186/123/68
f 22/30/69 21/28/69 117/124/69 118/126/69
f 89/29/70 88/31/70 184/127/70 185/125/70
f 26/32/71 25/34/71 121/129/71 122/128/71
f 25/34/72 24/33/72 120/130/72 121/129/72
f 86/35/73 85/37/73 181/132/73 182/131/73
f 85/37/74 84/36/74 180/133/74 181/132/74
f 23/38/75 22/30/75 118/126/75 119/134/75
f 88/31/76 87/39/76 183/135/76 184/127/76
f 24/33/77 23/38/77 119/134/77 120/130/77
f 87/39/78 86/35/78 182/131/78 183/135/78
f 27/40/79 26/32/79 122/128/79 123/136/79
f 84/36/80 83/41/80 179/137/80 180/133/80
f 28/42/81 27/40/81 123/136/81 124/138/81
f 83/41/82 82/43/82 178/139/82 179/137/82
f 29/44/83 28/42/83 124/138/83 125/140/83
f 82/43/84 81/45/84 177/141/84 178/139/84
f 30/46/85 29/44/85 125/140/85 126/142/85
f 81/45/86 80/47/86 176/143/86 177/141/86
f 31/48/87 30/46/87 126/142/87 127/144/87
f 80/47/88 79/49/88 175/145/88 176/143/88
f 32/50/89 31/48/89 127/144/89 128/146/89
f 79/49/90 78/51/90 174/147/90 175/145/90
f 33/52/91 32/50/91 128/146/91 129/148/91
f 78/51/92 77/53/92 173/149/92 174/147/92
f 34/54/93 33/52/93 129/148/93 130/150/93
f 77/53/94 76/55/94 172/151/94 173/149/94
f 35/56/95 34/54/95 130/150/95 131/152/95
f 76/55/96 75/57/96 171/153/96 172/151/96
f 36/58/97 35/56/97 131/152/97 132/154/97
f 75/57/98 74/59/98 170/155/98 171/153/98
f 37/60/99 36/58/99 132/154/99 133/156/99
f 38/61/100 37/60/100 133/156/100 134/157/100
f 39/62/101 38/61/101 134/157/101 135/158/101
f 72/64/102 71/63/102 167/159/102 168/160/102
f 73/65/103 72/64/103 168/160/103 169/161/103
f 74/59/104 73/65/104 169/161/104 170/155/104
f 40/66/105 39/62/105 135/158/105 136/162/105
f 71/63/106 70/67/106 166/163/106 167/159/106
f 41/68/107 40/66/107 136/162/107 137/164/107
f 70/67/108 69/69/108 165/165/108 166/163/108
f 42/70/109 41/68/109 137/164/109 138/166/109
f 69/69/110 68/71/110 164/167/110 165/165/110
f 43/72/111 42/70/111 138/166/111 139/168/111
f 68/71/112 67/73/112 163/169/112 164/167/112
f 44/74/113 43/72/113 139/168/113 140/170/113
f 67/73/114 66/75/114 162/171/114 163/169/114
f 45/76/115 44/74/115 140/170/115 141/172/115
f 66/75/116 65/77/116 161/173/116 162/171/116
f 46/78/117 45/76/117 141/172/117 142/174/117
f 65/77/118 64/79/118 160/175/118 161/173/118
f 47/80/119 46/78/119 142/174/119 143/176/119
f 55/82/120 54/81/120 150/177/120 151/178/120
f 56/83/121 55/82/121 151/178/121 152/179/121
f 64/79/122 63/84/122 159/180/122 160/175/122
f 54/81/123 53/85/123 149/181/123 150/177/123
f 57/86/124 56/83/124 152/179/124 153/182/124
f 58/87/125 57/86/125 153/182/125 154/183/125
f 53/85/126 52/88/126 148/184/126 149/181/126
f 59/89/127 58/87/127 154/183/127 155/185/127
f 52/88/128 51/90/128 147/186/128 148/184/128
f 48/91/129 47/80/129 143/176/129 144/187/129
f 63/84/130 62/92/130 158/188/130 159/180/130
f 60/93/131 59/89/131 155/185/131 156/189/131
f 51/90/132 50/94/132 146/190/132 147/186/132
f 61/95/133 60/93/133 156/189/133 157/191/133
f 62/92/134 61/95/134 157/191/134 158/188/134
f 49/96/135 48/91/135 144/187/135 145/192/135
f 50/94/136 49/96/136 145/192/136 146/190/136
