# Blender v3.0.1 OBJ File: 'melting platforms v2.blend'
# www.blender.org
o Capital_Curve.002
v 1.405885 1.125008 -3.393406
v 1.087556 1.125008 -2.631627
v 0.815054 1.124939 -2.008353
v 0.579212 1.124939 -1.523585
v 0.370867 1.125008 -1.177321
v 0.180851 1.125008 -0.969564
v 0.000001 1.124939 -0.900311
v -0.180849 1.125008 -0.969564
v -0.370864 1.125008 -1.177321
v -0.579209 1.125008 -1.523585
v -0.815051 1.125008 -2.008353
v -1.087553 1.125008 -2.631627
v -1.405883 1.125008 -3.393406
v -1.092203 1.125008 -2.629702
v -0.844078 1.125008 -1.996332
v -0.667989 1.124939 -1.486817
v -0.570417 1.125008 -1.094679
v -0.557842 1.125008 -0.813437
v -0.636746 1.125008 -0.636612
v -0.813607 1.125008 -0.557726
v -1.094909 1.124939 -0.570298
v -1.487130 1.125008 -0.667850
v -1.996752 1.125008 -0.843901
v -2.630256 1.125008 -1.091973
v -3.394122 1.125008 -1.405586
v -2.632182 1.124939 -1.087324
v -2.008777 1.124939 -0.814879
v -1.523906 1.124939 -0.579088
v -1.177569 1.125008 -0.370786
v -0.969768 1.125008 -0.180811
v -0.900500 1.125008 0.000001
v -0.969768 1.125008 0.180813
v -1.177569 1.125008 0.370788
v -1.523906 1.125008 0.579090
v -2.008777 1.125008 0.814881
v -2.632182 1.125008 1.087326
v -3.394122 1.125008 1.405587
v -2.630256 1.124939 1.091973
v -1.996753 1.125008 0.843901
v -1.487130 1.125008 0.667850
v -1.094909 1.125008 0.570298
v -0.813608 1.125008 0.557726
v -0.636746 1.124939 0.636612
v -0.557842 1.124939 0.813437
v -0.570417 1.124939 1.094679
v -0.667989 1.125008 1.486817
v -0.844078 1.125008 1.996332
v -1.092203 1.124939 2.629702
v -1.405883 1.125008 3.393407
v -1.087554 1.124939 2.631628
v -0.815051 1.125008 2.008354
v -0.579210 1.125008 1.523585
v -0.370864 1.124939 1.177322
v -0.180849 1.124939 0.969564
v 0.000001 1.125008 0.900311
v 0.180851 1.125008 0.969564
v 0.370866 1.124939 1.177322
v 0.579212 1.125008 1.523586
v 0.815053 1.125008 2.008354
v 1.087555 1.125008 2.631628
v 1.405885 1.125008 3.393407
v 1.092205 1.125008 2.629702
v 0.844080 1.125008 1.996332
v 0.667992 1.125008 1.486817
v 0.570419 1.125008 1.094679
v 0.557845 1.125008 0.813437
v 0.636748 1.125008 0.636613
v 0.813609 1.125008 0.557726
v 1.094911 1.125008 0.570298
v 1.487132 1.125008 0.667850
v 1.996754 1.125008 0.843902
v 2.630257 1.124939 1.091974
v 3.394124 1.124939 1.405587
v 2.632184 1.125008 1.087325
v 2.008779 1.125008 0.814880
v 1.523908 1.125008 0.579089
v 1.177571 1.125008 0.370787
v 0.969770 1.125008 0.180812
v 0.900503 1.124939 0.000000
v 0.969770 1.125008 -0.180811
v 1.177572 1.125008 -0.370786
v 1.523908 1.125008 -0.579088
v 2.008779 1.124939 -0.814880
v 2.632185 1.125008 -1.087325
v 3.394124 1.125008 -1.405586
v 2.630258 1.124939 -1.091973
v 1.996754 1.124939 -0.843901
v 1.487132 1.125008 -0.667849
v 1.094910 1.125008 -0.570298
v 0.813609 1.125008 -0.557725
v 0.636747 1.125008 -0.636612
v 0.557844 1.124939 -0.813436
v 0.570419 1.125008 -1.094678
v 0.667991 1.125008 -1.486817
v 0.844080 1.125008 -1.996331
v 1.092204 1.125008 -2.629701
v 1.405885 -1.124992 -3.393406
v 1.087556 -1.124992 -2.631627
v 0.815054 -1.124992 -2.008353
v 0.579212 -1.124992 -1.523585
v 0.370867 -1.124992 -1.177321
v 0.180851 -1.124992 -0.969564
v 0.000001 -1.124992 -0.900311
v -0.180849 -1.124992 -0.969564
v -0.370864 -1.124992 -1.177321
v -0.579209 -1.124992 -1.523585
v -0.815051 -1.124992 -2.008353
v -1.087553 -1.124992 -2.631627
v -1.405883 -1.124992 -3.393406
v -1.092203 -1.124992 -2.629702
v -0.844078 -1.124992 -1.996332
v -0.667989 -1.124992 -1.486817
v -0.570417 -1.124992 -1.094679
v -0.557842 -1.124992 -0.813437
v -0.636746 -1.124992 -0.636612
v -0.813607 -1.124992 -0.557726
v -1.094909 -1.124992 -0.570298
v -1.487130 -1.124992 -0.667850
v -1.996752 -1.124992 -0.843901
v -2.630256 -1.124992 -1.091973
v -3.394122 -1.124992 -1.405586
v -2.632182 -1.124992 -1.087324
v -2.008777 -1.124992 -0.814879
v -1.523906 -1.124992 -0.579088
v -1.177569 -1.124992 -0.370786
v -0.969768 -1.124992 -0.180811
v -0.900500 -1.124992 0.000001
v -0.969768 -1.124992 0.180813
v -1.177569 -1.124992 0.370788
v -1.523906 -1.124992 0.579090
v -2.008777 -1.124992 0.814881
v -2.632182 -1.124992 1.087326
v -3.394122 -1.124992 1.405587
v -2.630256 -1.124992 1.091973
v -1.996753 -1.124992 0.843901
v -1.487130 -1.124992 0.667850
v -1.094909 -1.124992 0.570298
v -0.813608 -1.124992 0.557726
v -0.636746 -1.124992 0.636612
v -0.557842 -1.124992 0.813437
v -0.570417 -1.124992 1.094679
v -0.667989 -1.124992 1.486817
v -0.844078 -1.124992 1.996332
v -1.092203 -1.124992 2.629702
v -1.405883 -1.124992 3.393407
v -1.087554 -1.124992 2.631628
v -0.815051 -1.124992 2.008354
v -0.579210 -1.124992 1.523585
v -0.370864 -1.124992 1.177322
v -0.180849 -1.124992 0.969564
v 0.000001 -1.124992 0.900311
v 0.180851 -1.124992 0.969564
v 0.370866 -1.124992 1.177322
v 0.579212 -1.124992 1.523586
v 0.815053 -1.124992 2.008354
v 1.087555 -1.124992 2.631628
v 1.405885 -1.124992 3.393407
v 1.092205 -1.124992 2.629702
v 0.844080 -1.124992 1.996332
v 0.667992 -1.124992 1.486817
v 0.570419 -1.124992 1.094679
v 0.557845 -1.124992 0.813437
v 0.636748 -1.124992 0.636613
v 0.813609 -1.124992 0.557726
v 1.094911 -1.124992 0.570298
v 1.487132 -1.124992 0.667850
v 1.996754 -1.124992 0.843902
v 2.630257 -1.124992 1.091974
v 3.394124 -1.124992 1.405587
v 2.632184 -1.124992 1.087325
v 2.008779 -1.124992 0.814880
v 1.523908 -1.124992 0.579089
v 1.177571 -1.124992 0.370787
v 0.969770 -1.124992 0.180812
v 0.900503 -1.124992 0.000000
v 0.969770 -1.124992 -0.180811
v 1.177572 -1.124992 -0.370786
v 1.523908 -1.124992 -0.579088
v 2.008779 -1.124992 -0.814880
v 2.632185 -1.124992 -1.087325
v 3.394124 -1.124992 -1.405586
v 2.630258 -1.124992 -1.091973
v 1.996754 -1.124992 -0.843901
v 1.487132 -1.124992 -0.667849
v 1.094910 -1.124992 -0.570298
v 0.813609 -1.124992 -0.557725
v 0.636747 -1.124992 -0.636612
v 0.557844 -1.124992 -0.813436
v 0.570419 -1.124992 -1.094678
v 0.667991 -1.124992 -1.486817
v 0.844080 -1.124992 -1.996331
v 1.092204 -1.124992 -2.629701
vt 0.136842 0.000000
vt 0.115789 0.000000
vt 0.126316 0.000000
vt 0.010526 0.000000
vt 1.000000 0.000000
vt 0.000000 0.000000
vt 0.105263 0.000000
vt 0.021053 0.000000
vt 0.147368 0.000000
vt 0.989474 0.000000
vt 0.094737 0.000000
vt 0.031579 0.000000
vt 0.157895 0.000000
vt 0.978947 0.000000
vt 0.084211 0.000000
vt 0.042105 0.000000
vt 0.168421 0.000000
vt 0.968421 0.000000
vt 0.263158 0.000000
vt 0.242105 0.000000
vt 0.252632 0.000000
vt 0.894737 0.000000
vt 0.873684 0.000000
vt 0.884211 0.000000
vt 0.073684 0.000000
vt 0.052632 0.000000
vt 0.178947 0.000000
vt 0.957895 0.000000
vt 0.231579 0.000000
vt 0.905263 0.000000
vt 0.863158 0.000000
vt 0.273684 0.000000
vt 0.063158 0.000000
vt 0.221053 0.000000
vt 0.915789 0.000000
vt 0.852632 0.000000
vt 0.284211 0.000000
vt 0.189474 0.000000
vt 0.947368 0.000000
vt 0.210526 0.000000
vt 0.926316 0.000000
vt 0.200000 0.000000
vt 0.936842 0.000000
vt 0.842105 0.000000
vt 0.294737 0.000000
vt 0.831579 0.000000
vt 0.305263 0.000000
vt 0.821053 0.000000
vt 0.315789 0.000000
vt 0.810526 0.000000
vt 0.326316 0.000000
vt 0.800000 0.000000
vt 0.336842 0.000000
vt 0.789474 0.000000
vt 0.347368 0.000000
vt 0.431579 0.000000
vt 0.705263 0.000000
vt 0.421053 0.000000
vt 0.442105 0.000000
vt 0.694737 0.000000
vt 0.715789 0.000000
vt 0.410526 0.000000
vt 0.726316 0.000000
vt 0.778947 0.000000
vt 0.357895 0.000000
vt 0.452632 0.000000
vt 0.684211 0.000000
vt 0.400000 0.000000
vt 0.736842 0.000000
vt 0.463158 0.000000
vt 0.568421 0.000000
vt 0.673684 0.000000
vt 0.768421 0.000000
vt 0.368421 0.000000
vt 0.389474 0.000000
vt 0.747368 0.000000
vt 0.557895 0.000000
vt 0.578947 0.000000
vt 0.547368 0.000000
vt 0.589474 0.000000
vt 0.757895 0.000000
vt 0.378947 0.000000
vt 0.473684 0.000000
vt 0.663158 0.000000
vt 0.536842 0.000000
vt 0.600000 0.000000
vt 0.484211 0.000000
vt 0.652632 0.000000
vt 0.526316 0.000000
vt 0.610526 0.000000
vt 0.494737 0.000000
vt 0.642105 0.000000
vt 0.515789 0.000000
vt 0.621053 0.000000
vt 0.505263 0.000000
vt 0.631579 0.000000
vt 0.136842 0.000000
vt 0.126316 0.000000
vt 0.115789 0.000000
vt 0.010526 0.000000
vt 0.000000 0.000000
vt 1.000000 0.000000
vt 0.105263 0.000000
vt 0.021053 0.000000
vt 0.147368 0.000000
vt 0.989474 0.000000
vt 0.094737 0.000000
vt 0.031579 0.000000
vt 0.157895 0.000000
vt 0.978947 0.000000
vt 0.084211 0.000000
vt 0.042105 0.000000
vt 0.168421 0.000000
vt 0.968421 0.000000
vt 0.263158 0.000000
vt 0.252632 0.000000
vt 0.242105 0.000000
vt 0.894737 0.000000
vt 0.884211 0.000000
vt 0.873684 0.000000
vt 0.073684 0.000000
vt 0.052632 0.000000
vt 0.178947 0.000000
vt 0.957895 0.000000
vt 0.231579 0.000000
vt 0.905263 0.000000
vt 0.863158 0.000000
vt 0.273684 0.000000
vt 0.063158 0.000000
vt 0.221053 0.000000
vt 0.915789 0.000000
vt 0.852632 0.000000
vt 0.284211 0.000000
vt 0.189474 0.000000
vt 0.947368 0.000000
vt 0.210526 0.000000
vt 0.926316 0.000000
vt 0.200000 0.000000
vt 0.936842 0.000000
vt 0.842105 0.000000
vt 0.294737 0.000000
vt 0.831579 0.000000
vt 0.305263 0.000000
vt 0.821053 0.000000
vt 0.315789 0.000000
vt 0.810526 0.000000
vt 0.326316 0.000000
vt 0.800000 0.000000
vt 0.336842 0.000000
vt 0.789474 0.000000
vt 0.347368 0.000000
vt 0.431579 0.000000
vt 0.705263 0.000000
vt 0.421053 0.000000
vt 0.442105 0.000000
vt 0.694737 0.000000
vt 0.715789 0.000000
vt 0.410526 0.000000
vt 0.726316 0.000000
vt 0.778947 0.000000
vt 0.357895 0.000000
vt 0.452632 0.000000
vt 0.684211 0.000000
vt 0.400000 0.000000
vt 0.736842 0.000000
vt 0.463158 0.000000
vt 0.568421 0.000000
vt 0.673684 0.000000
vt 0.768421 0.000000
vt 0.368421 0.000000
vt 0.389474 0.000000
vt 0.747368 0.000000
vt 0.557895 0.000000
vt 0.578947 0.000000
vt 0.547368 0.000000
vt 0.589474 0.000000
vt 0.757895 0.000000
vt 0.378947 0.000000
vt 0.473684 0.000000
vt 0.663158 0.000000
vt 0.536842 0.000000
vt 0.600000 0.000000
vt 0.484211 0.000000
vt 0.652632 0.000000
vt 0.526316 0.000000
vt 0.610526 0.000000
vt 0.494737 0.000000
vt 0.642105 0.000000
vt 0.515789 0.000000
vt 0.621053 0.000000
vt 0.505263 0.000000
vt 0.631579 0.000000
vn 0.0000 1.0000 0.0000
vn -0.0000 1.0000 0.0001
vn -0.0020 1.0000 -0.0008
vn -0.0020 1.0000 -0.0010
vn -0.0006 1.0000 0.0004
vn -0.0007 1.0000 -0.0002
vn -0.0006 1.0000 -0.0005
vn -0.0001 1.0000 -0.0002
vn -0.0052 0.9999 0.0127
vn -0.0053 0.9999 -0.0127
vn 0.0001 1.0000 0.0002
vn -0.0050 0.9999 0.0127
vn -0.0050 0.9999 -0.0127
vn -0.0001 1.0000 0.0000
vn -0.0009 1.0000 0.0020
vn 0.0002 1.0000 0.0005
vn -0.0001 1.0000 0.0007
vn 0.0001 1.0000 -0.0004
vn -0.0007 1.0000 0.0021
vn 0.0001 1.0000 -0.0001
vn 0.0001 1.0000 -0.0000
vn -0.0003 1.0000 0.0006
vn 0.0000 1.0000 -0.0004
vn -0.0000 1.0000 0.0008
vn 0.0000 1.0000 -0.0003
vn -0.0002 1.0000 -0.0004
vn 0.0000 1.0000 0.0004
vn -0.0000 1.0000 0.0009
vn -0.0001 1.0000 -0.0001
vn -0.0001 1.0000 -0.0004
vn 0.0049 0.9999 0.0128
vn -0.0049 0.9999 0.0128
vn 0.0020 1.0000 0.0061
vn -0.0002 1.0000 0.0005
vn -0.0052 0.9999 0.0126
vn 0.0053 0.9999 0.0127
vn 0.0001 1.0000 -0.0002
vn -0.0003 1.0000 0.0001
vn 0.0000 1.0000 -0.0001
vn 0.0000 -1.0000 0.0000
vn -0.9250 0.0000 0.3799
vn 0.9227 0.0000 -0.3856
vn -0.9227 0.0000 -0.3856
vn 0.9250 0.0000 0.3799
vn 0.9163 0.0000 -0.4006
vn -0.9163 0.0000 -0.4006
vn -0.9311 0.0000 0.3648
vn 0.9311 0.0000 0.3648
vn 0.8992 0.0000 -0.4375
vn -0.8992 0.0000 -0.4375
vn -0.9451 0.0000 0.3266
vn 0.9451 0.0000 0.3266
vn 0.8569 0.0000 -0.5156
vn -0.8569 0.0000 -0.5156
vn -0.9704 0.0000 0.2415
vn 0.9704 0.0000 0.2415
vn -0.3854 0.0000 0.9227
vn 0.3798 0.0000 -0.9251
vn -0.3798 0.0000 -0.9251
vn 0.3854 0.0000 0.9227
vn 0.7379 0.0000 -0.6749
vn -0.7379 0.0000 -0.6749
vn -0.9990 0.0000 0.0447
vn 0.9990 0.0000 0.0447
vn 0.3646 0.0000 -0.9312
vn -0.3646 0.0000 -0.9312
vn 0.4005 0.0000 0.9163
vn -0.4005 0.0000 0.9163
vn 0.3576 0.0000 -0.9339
vn -0.3576 0.0000 -0.9339
vn 0.3265 0.0000 -0.9452
vn -0.3265 0.0000 -0.9452
vn 0.4373 0.0000 0.8993
vn -0.4373 0.0000 0.8993
vn -0.9132 0.0000 -0.4075
vn 0.9132 0.0000 -0.4075
vn 0.2414 0.0000 -0.9704
vn -0.2414 0.0000 -0.9704
vn -0.4074 0.0000 -0.9133
vn 0.4074 0.0000 -0.9133
vn 0.5154 0.0000 0.8569
vn -0.5154 0.0000 0.8569
vn 0.0446 0.0000 -0.9990
vn -0.0446 0.0000 -0.9990
vn 0.6747 0.0000 0.7381
vn -0.6747 0.0000 0.7381
vn 0.9338 0.0000 0.3577
vn -0.9338 0.0000 0.3577
vn 0.9338 0.0000 -0.3577
vn -0.9338 0.0000 -0.3577
vn 0.6747 0.0000 -0.7381
vn -0.6747 0.0000 -0.7381
vn 0.5154 0.0000 -0.8569
vn -0.5154 0.0000 -0.8569
vn 0.0446 0.0000 0.9990
vn -0.4074 0.0000 0.9133
vn 0.4074 0.0000 0.9133
vn -0.0446 0.0000 0.9990
vn 0.2414 0.0000 0.9704
vn -0.2414 0.0000 0.9704
vn 0.4373 0.0000 -0.8993
vn -0.4373 0.0000 -0.8993
vn -0.9132 0.0000 0.4075
vn 0.9132 0.0000 0.4075
vn 0.3265 0.0000 0.9452
vn -0.3265 0.0000 0.9452
vn -0.9990 0.0000 -0.0447
vn 0.9990 0.0000 -0.0447
vn 0.4005 0.0000 -0.9163
vn -0.4005 0.0000 -0.9163
vn 0.3646 0.0000 0.9312
vn -0.3646 0.0000 0.9312
vn 0.3576 0.0000 0.9339
vn -0.3576 0.0000 0.9339
vn 0.7379 0.0000 0.6749
vn -0.7379 0.0000 0.6749
vn -0.3798 0.0000 0.9251
vn 0.3854 0.0000 -0.9227
vn -0.3854 0.0000 -0.9227
vn 0.3798 0.0000 0.9251
vn -0.9704 0.0000 -0.2415
vn 0.9704 0.0000 -0.2415
vn 0.8569 0.0000 0.5156
vn -0.8569 0.0000 0.5156
vn -0.9451 0.0000 -0.3266
vn 0.9451 0.0000 -0.3266
vn 0.8992 0.0000 0.4375
vn -0.8992 0.0000 0.4375
vn -0.9311 0.0000 -0.3648
vn 0.9311 0.0000 -0.3648
vn 0.9163 0.0000 0.4006
vn -0.9163 0.0000 0.4006
vn -0.9250 0.0000 -0.3799
vn 0.9227 0.0000 0.3856
vn -0.9227 0.0000 0.3856
vn 0.9250 0.0000 -0.3799
s off
f 14/1/1 12/2/1 13/3/1
f 2/4/1 96/5/1 1/6/1
f 14/1/1 11/7/1 12/2/1
f 3/8/2 96/5/2 2/4/2
f 15/9/1 11/7/1 14/1/1
f 3/8/3 95/10/3 96/5/3
f 15/9/1 10/11/1 11/7/1
f 4/12/4 95/10/4 3/8/4
f 16/13/5 10/11/5 15/9/5
f 4/12/6 94/14/6 95/10/6
f 16/13/5 9/15/5 10/11/5
f 5/16/7 94/14/7 4/12/7
f 17/17/8 9/15/8 16/13/8
f 5/16/1 93/18/1 94/14/1
f 26/19/9 24/20/9 25/21/9
f 86/22/10 84/23/10 85/24/10
f 17/17/1 8/25/1 9/15/1
f 6/26/1 93/18/1 5/16/1
f 18/27/1 8/25/1 17/17/1
f 6/26/11 92/28/11 93/18/11
f 26/19/12 23/29/12 24/20/12
f 87/30/13 84/23/13 86/22/13
f 87/30/14 83/31/14 84/23/14
f 27/32/15 23/29/15 26/19/15
f 18/27/16 7/33/16 8/25/16
f 7/33/17 92/28/17 6/26/17
f 18/27/18 92/28/18 7/33/18
f 27/32/19 22/34/19 23/29/19
f 88/35/20 83/31/20 87/30/20
f 88/35/21 82/36/21 83/31/21
f 28/37/22 22/34/22 27/32/22
f 19/38/21 92/28/21 18/27/21
f 19/38/23 91/39/23 92/28/23
f 28/37/24 21/40/24 22/34/24
f 89/41/1 82/36/1 88/35/1
f 20/42/1 91/39/1 19/38/1
f 20/42/1 90/43/1 91/39/1
f 89/41/1 81/44/1 82/36/1
f 29/45/25 21/40/25 28/37/25
f 29/45/26 20/42/26 21/40/26
f 90/43/1 81/44/1 89/41/1
f 29/45/1 90/43/1 20/42/1
f 29/45/1 81/44/1 90/43/1
f 29/45/1 80/46/1 81/44/1
f 30/47/1 80/46/1 29/45/1
f 30/47/27 79/48/27 80/46/27
f 31/49/1 79/48/1 30/47/1
f 31/49/23 78/50/23 79/48/23
f 32/51/1 78/50/1 31/49/1
f 32/51/1 77/52/1 78/50/1
f 33/53/1 77/52/1 32/51/1
f 33/53/1 76/54/1 77/52/1
f 34/55/1 42/56/1 33/53/1
f 42/56/1 68/57/1 33/53/1
f 68/57/1 76/54/1 33/53/1
f 34/55/1 41/58/1 42/56/1
f 43/59/28 68/57/28 42/56/28
f 43/59/29 67/60/29 68/57/29
f 69/61/1 76/54/1 68/57/1
f 34/55/1 40/62/1 41/58/1
f 70/63/1 76/54/1 69/61/1
f 70/63/1 75/64/1 76/54/1
f 35/65/1 40/62/1 34/55/1
f 44/66/14 67/60/14 43/59/14
f 44/66/14 66/67/14 67/60/14
f 35/65/1 39/68/1 40/62/1
f 71/69/1 75/64/1 70/63/1
f 45/70/14 55/71/14 44/66/14
f 55/71/30 66/67/30 44/66/30
f 55/71/1 65/72/1 66/67/1
f 71/69/1 74/73/1 75/64/1
f 36/74/1 39/68/1 35/65/1
f 36/74/31 38/75/31 39/68/31
f 72/76/32 74/73/32 71/69/32
f 45/70/33 54/77/33 55/71/33
f 56/78/1 65/72/1 55/71/1
f 45/70/1 53/79/1 54/77/1
f 57/80/34 65/72/34 56/78/34
f 72/76/35 73/81/35 74/73/35
f 37/82/36 38/75/36 36/74/36
f 46/83/37 53/79/37 45/70/37
f 57/80/38 64/84/38 65/72/38
f 46/83/37 52/85/37 53/79/37
f 58/86/8 64/84/8 57/80/8
f 47/87/1 52/85/1 46/83/1
f 58/86/1 63/88/1 64/84/1
f 47/87/1 51/89/1 52/85/1
f 59/90/1 63/88/1 58/86/1
f 48/91/2 51/89/2 47/87/2
f 59/90/1 62/92/1 63/88/1
f 48/91/2 50/93/2 51/89/2
f 60/94/1 62/92/1 59/90/1
f 49/95/39 50/93/39 48/91/39
f 60/94/1 61/96/1 62/92/1
f 110/97/40 109/98/40 108/99/40
f 98/100/40 97/101/40 192/102/40
f 110/97/40 108/99/40 107/103/40
f 99/104/40 98/100/40 192/102/40
f 111/105/40 110/97/40 107/103/40
f 99/104/40 192/102/40 191/106/40
f 111/105/40 107/103/40 106/107/40
f 100/108/40 99/104/40 191/106/40
f 112/109/40 111/105/40 106/107/40
f 100/108/40 191/106/40 190/110/40
f 112/109/40 106/107/40 105/111/40
f 101/112/40 100/108/40 190/110/40
f 113/113/40 112/109/40 105/111/40
f 101/112/40 190/110/40 189/114/40
f 122/115/40 121/116/40 120/117/40
f 182/118/40 181/119/40 180/120/40
f 113/113/40 105/111/40 104/121/40
f 102/122/40 101/112/40 189/114/40
f 114/123/40 113/113/40 104/121/40
f 102/122/40 189/114/40 188/124/40
f 122/115/40 120/117/40 119/125/40
f 183/126/40 182/118/40 180/120/40
f 183/126/40 180/120/40 179/127/40
f 123/128/40 122/115/40 119/125/40
f 114/123/40 104/121/40 103/129/40
f 103/129/40 102/122/40 188/124/40
f 114/123/40 103/129/40 188/124/40
f 123/128/40 119/125/40 118/130/40
f 184/131/40 183/126/40 179/127/40
f 184/131/40 179/127/40 178/132/40
f 124/133/40 123/128/40 118/130/40
f 115/134/40 114/123/40 188/124/40
f 115/134/40 188/124/40 187/135/40
f 124/133/40 118/130/40 117/136/40
f 185/137/40 184/131/40 178/132/40
f 116/138/40 115/134/40 187/135/40
f 116/138/40 187/135/40 186/139/40
f 185/137/40 178/132/40 177/140/40
f 125/141/40 124/133/40 117/136/40
f 125/141/40 117/136/40 116/138/40
f 186/139/40 185/137/40 177/140/40
f 125/141/40 116/138/40 186/139/40
f 125/141/40 186/139/40 177/140/40
f 125/141/40 177/140/40 176/142/40
f 126/143/40 125/141/40 176/142/40
f 126/143/40 176/142/40 175/144/40
f 127/145/40 126/143/40 175/144/40
f 127/145/40 175/144/40 174/146/40
f 128/147/40 127/145/40 174/146/40
f 128/147/40 174/146/40 173/148/40
f 129/149/40 128/147/40 173/148/40
f 129/149/40 173/148/40 172/150/40
f 130/151/40 129/149/40 138/152/40
f 138/152/40 129/149/40 164/153/40
f 164/153/40 129/149/40 172/150/40
f 130/151/40 138/152/40 137/154/40
f 139/155/40 138/152/40 164/153/40
f 139/155/40 164/153/40 163/156/40
f 165/157/40 164/153/40 172/150/40
f 130/151/40 137/154/40 136/158/40
f 166/159/40 165/157/40 172/150/40
f 166/159/40 172/150/40 171/160/40
f 131/161/40 130/151/40 136/158/40
f 140/162/40 139/155/40 163/156/40
f 140/162/40 163/156/40 162/163/40
f 131/161/40 136/158/40 135/164/40
f 167/165/40 166/159/40 171/160/40
f 141/166/40 140/162/40 151/167/40
f 151/167/40 140/162/40 162/163/40
f 151/167/40 162/163/40 161/168/40
f 167/165/40 171/160/40 170/169/40
f 132/170/40 131/161/40 135/164/40
f 132/170/40 135/164/40 134/171/40
f 168/172/40 167/165/40 170/169/40
f 141/166/40 151/167/40 150/173/40
f 152/174/40 151/167/40 161/168/40
f 141/166/40 150/173/40 149/175/40
f 153/176/40 152/174/40 161/168/40
f 168/172/40 170/169/40 169/177/40
f 133/178/40 132/170/40 134/171/40
f 142/179/40 141/166/40 149/175/40
f 153/176/40 161/168/40 160/180/40
f 142/179/40 149/175/40 148/181/40
f 154/182/40 153/176/40 160/180/40
f 143/183/40 142/179/40 148/181/40
f 154/182/40 160/180/40 159/184/40
f 143/183/40 148/181/40 147/185/40
f 155/186/40 154/182/40 159/184/40
f 144/187/40 143/183/40 147/185/40
f 155/186/40 159/184/40 158/188/40
f 144/187/40 147/185/40 146/189/40
f 156/190/40 155/186/40 158/188/40
f 145/191/40 144/187/40 146/189/40
f 156/190/40 158/188/40 157/192/40
f 14/1/41 13/3/41 109/98/41 110/97/41
f 13/3/42 12/2/42 108/99/42 109/98/42
f 2/4/43 1/6/43 97/101/43 98/100/43
f 1/6/44 96/5/44 192/102/44 97/101/44
f 12/2/45 11/7/45 107/103/45 108/99/45
f 3/8/46 2/4/46 98/100/46 99/104/46
f 15/9/47 14/1/47 110/97/47 111/105/47
f 96/5/48 95/10/48 191/106/48 192/102/48
f 11/7/49 10/11/49 106/107/49 107/103/49
f 4/12/50 3/8/50 99/104/50 100/108/50
f 16/13/51 15/9/51 111/105/51 112/109/51
f 95/10/52 94/14/52 190/110/52 191/106/52
f 10/11/53 9/15/53 105/111/53 106/107/53
f 5/16/54 4/12/54 100/108/54 101/112/54
f 17/17/55 16/13/55 112/109/55 113/113/55
f 94/14/56 93/18/56 189/114/56 190/110/56
f 26/19/57 25/21/57 121/116/57 122/115/57
f 25/21/58 24/20/58 120/117/58 121/116/58
f 86/22/59 85/24/59 181/119/59 182/118/59
f 85/24/60 84/23/60 180/120/60 181/119/60
f 9/15/61 8/25/61 104/121/61 105/111/61
f 6/26/62 5/16/62 101/112/62 102/122/62
f 18/27/63 17/17/63 113/113/63 114/123/63
f 93/18/64 92/28/64 188/124/64 189/114/64
f 24/20/65 23/29/65 119/125/65 120/117/65
f 87/30/66 86/22/66 182/118/66 183/126/66
f 84/23/67 83/31/67 179/127/67 180/120/67
f 27/32/68 26/19/68 122/115/68 123/128/68
f 8/25/69 7/33/69 103/129/69 104/121/69
f 7/33/70 6/26/70 102/122/70 103/129/70
f 23/29/71 22/34/71 118/130/71 119/125/71
f 88/35/72 87/30/72 183/126/72 184/131/72
f 83/31/73 82/36/73 178/132/73 179/127/73
f 28/37/74 27/32/74 123/128/74 124/133/74
f 19/38/75 18/27/75 114/123/75 115/134/75
f 92/28/76 91/39/76 187/135/76 188/124/76
f 22/34/77 21/40/77 117/136/77 118/130/77
f 89/41/78 88/35/78 184/131/78 185/137/78
f 20/42/79 19/38/79 115/134/79 116/138/79
f 91/39/80 90/43/80 186/139/80 187/135/80
f 82/36/81 81/44/81 177/140/81 178/132/81
f 29/45/82 28/37/82 124/133/82 125/141/82
f 21/40/83 20/42/83 116/138/83 117/136/83
f 90/43/84 89/41/84 185/137/84 186/139/84
f 81/44/85 80/46/85 176/142/85 177/140/85
f 30/47/86 29/45/86 125/141/86 126/143/86
f 80/46/87 79/48/87 175/144/87 176/142/87
f 31/49/88 30/47/88 126/143/88 127/145/88
f 79/48/89 78/50/89 174/146/89 175/144/89
f 32/51/90 31/49/90 127/145/90 128/147/90
f 78/50/91 77/52/91 173/148/91 174/146/91
f 33/53/92 32/51/92 128/147/92 129/149/92
f 77/52/93 76/54/93 172/150/93 173/148/93
f 34/55/94 33/53/94 129/149/94 130/151/94
f 42/56/95 41/58/95 137/154/95 138/152/95
f 43/59/96 42/56/96 138/152/96 139/155/96
f 68/57/97 67/60/97 163/156/97 164/153/97
f 69/61/98 68/57/98 164/153/98 165/157/98
f 41/58/99 40/62/99 136/158/99 137/154/99
f 70/63/100 69/61/100 165/157/100 166/159/100
f 76/54/101 75/64/101 171/160/101 172/150/101
f 35/65/102 34/55/102 130/151/102 131/161/102
f 44/66/103 43/59/103 139/155/103 140/162/103
f 67/60/104 66/67/104 162/163/104 163/156/104
f 40/62/105 39/68/105 135/164/105 136/158/105
f 71/69/106 70/63/106 166/159/106 167/165/106
f 45/70/107 44/66/107 140/162/107 141/166/107
f 66/67/108 65/72/108 161/168/108 162/163/108
f 75/64/109 74/73/109 170/169/109 171/160/109
f 36/74/110 35/65/110 131/161/110 132/170/110
f 39/68/111 38/75/111 134/171/111 135/164/111
f 72/76/112 71/69/112 167/165/112 168/172/112
f 55/71/113 54/77/113 150/173/113 151/167/113
f 56/78/114 55/71/114 151/167/114 152/174/114
f 54/77/115 53/79/115 149/175/115 150/173/115
f 57/80/116 56/78/116 152/174/116 153/176/116
f 73/81/117 72/76/117 168/172/117 169/177/117
f 74/73/118 73/81/118 169/177/118 170/169/118
f 37/82/119 36/74/119 132/170/119 133/178/119
f 38/75/120 37/82/120 133/178/120 134/171/120
f 46/83/121 45/70/121 141/166/121 142/179/121
f 65/72/122 64/84/122 160/180/122 161/168/122
f 53/79/123 52/85/123 148/181/123 149/175/123
f 58/86/124 57/80/124 153/176/124 154/182/124
f 47/87/125 46/83/125 142/179/125 143/183/125
f 64/84/126 63/88/126 159/184/126 160/180/126
f 52/85/127 51/89/127 147/185/127 148/181/127
f 59/90/128 58/86/128 154/182/128 155/186/128
f 48/91/129 47/87/129 143/183/129 144/187/129
f 63/88/130 62/92/130 158/188/130 159/184/130
f 51/89/131 50/93/131 146/189/131 147/185/131
f 60/94/132 59/90/132 155/186/132 156/190/132
f 49/95/133 48/91/133 144/187/133 145/191/133
f 50/93/134 49/95/134 145/191/134 146/189/134
f 61/96/135 60/94/135 156/190/135 157/192/135
f 62/92/136 61/96/136 157/192/136 158/188/136
